<svg xmlns="http://www.w3.org/2000/svg" viewBox="0 0 32 32" width="32" height="32" role="img" aria-label="Mark">
  <defs>
    <linearGradient id="g" x1="4" y1="3" x2="28" y2="30" gradientUnits="userSpaceOnUse">
      <stop stop-color="#8b8cff"/>
      <stop offset="1" stop-color="#59c2ff"/>
    </linearGradient>
  </defs>
  <rect x="1" y="1" width="30" height="30" rx="9" fill="url(#g)"/>
  <g transform="translate(4 4)">
    <path d="M6 4h12a3 3 0 0 1 3 3v7a3 3 0 0 1-3 3h-7l-4 3.5V17H6a3 3 0 0 1-3-3V7a3 3 0 0 1 3-3z"
          fill="none" stroke="#fff" stroke-width="1.7" stroke-linejoin="round"/>
    <path d="M12 7l1 2.3 2.3 1-2.3 1-1 2.3-1-2.3-2.3-1 2.3-1z" fill="#fff"/>
  </g>
</svg>
